<svg xmlns="http://www.w3.org/2000/svg" viewBox="-169.504 2730.694 25.005 25.806">
  <defs>
    <style>
      .cls-1 {
        fill: none;
        stroke: #231f20;
      }
    </style>
  </defs>
  <g id="group-19" transform="translate(-169.508 2730.7)">
    <g id="group" transform="translate(0.508 1.3)">
      <path id="path" class="cls-1" d="M310.132,876.5a.635.635,0,0,0,.634-.635V874.6a12.989,12.989,0,0,1-8.766,0v1.26a.635.635,0,0,0,.634.635Z" transform="translate(-294.383 -852.496)"/>
      <path id="path-2" data-name="path" class="cls-1" d="M581.7,98.035a2.315,2.315,0,0,0-3.241.476l-4.563,6.143h5.775l2.5-3.371A2.325,2.325,0,0,0,581.7,98.035Z" transform="translate(-559.414 -95.139)"/>
      <path id="path-3" data-name="path" class="cls-1" d="M8.347,414.7a12.361,12.361,0,0,0,8.322,0A11.873,11.873,0,0,0,24.5,404.612,1.112,1.112,0,0,0,23.4,403.4H1.619a1.112,1.112,0,0,0-1.107,1.212A11.873,11.873,0,0,0,8.347,414.7Z" transform="translate(-0.508 -393.222)"/>
      <path id="path-4" data-name="path" class="cls-1" d="M35.82,7.349l.874-2.131,2.243-.985L36.676,3.37,35.82,1.3l-.859,2.07L32.7,4.234l2.243.985Z" transform="translate(-31.887 -1.3)"/>
    </g>
  </g>
</svg>
