<svg xmlns="http://www.w3.org/2000/svg" viewBox="-126 2732 24 24">
  <g id="food" transform="translate(-126 2732)">
    <g id="group" transform="translate(0)">
      <path id="path" d="M11.189,4.6c.521-.039.928-.234.869-.507S11.6,3.817,10.9,3.973s-1.108.311-.927.467C10.379,4.791,10.668,4.635,11.189,4.6Zm-.058,2.415c.348.233,1.217-.078,1.8-.156s.812-.234.521-.546-1.1-.156-1.623.039S10.91,6.863,11.132,7.012ZM29.793,8.063c.289-1.208-1.739-1.909-1.739-1.909l.869-2.22a1.986,1.986,0,0,0,.812-.273c.521-.272,1.332-.9.811-1.753s-2.78-.35-2.78-.35a1.51,1.51,0,0,0-2.318.779c-.233.9,1.043,1.519,1.043,1.519l-.927,1.87c-.348.039-1.623.35-1.623.35a3.3,3.3,0,0,0-.811-.506c-.405-.156-.174-.506-.116-.818a11.177,11.177,0,0,1,.405-1.636c.174-.428-1.333-.311-1.623-.311s.058-.935.29-1.4S21.566.74,21.1.74a20.1,20.1,0,0,0-2.259.079c-.289.078,0,2.22,0,2.22a1.464,1.464,0,0,1-.405-.584c-.058-.272-.985-.078-1.681.039s-.173.546-.058,1.285.29,1.6.29,1.6a2.484,2.484,0,0,0-.812.39A.743.743,0,0,0,16,6.543S14.205,2.8,13.8,1.52A2.127,2.127,0,0,0,11.421,0,14.554,14.554,0,0,0,7.306,1.013c-1.217.468-.289,2.1.405,3.739S9.566,8.765,9.566,8.765l-.347-.079a2.754,2.754,0,0,0-1.681-.195c-.928.195-.405.857-.116,1.636a3.6,3.6,0,0,0,1.332,1.831c.58.35.348.818.29,1.052a6.622,6.622,0,0,0-.985,1.714c-.29.857-.521,1.363-.405,1.753s1.739,1.362,2.376,1.909-.405,1.674-1.043,3.039-.869,1.947-.464,2.3,2.434-.079,4.057-.117,2.55.117,5.1.273S22.838,24,24.461,24a34.094,34.094,0,0,0,5.273-.428c.7-.195.174-2.96,0-4.051s-.348-2.376-.985-2.765,0-.546.521-.974.7-.506.637-1.246a26.769,26.769,0,0,1,.405-5.18A1.077,1.077,0,0,0,29.793,8.063Zm-2.608-3.9c.174-.428.58-.623.116-.818s-1.333-.7-.753-1.052.753-.156,1.1.117.637-.117,1.043-.233,1.855.039,1.275.546-1.739.428-1.912.74a17,17,0,0,0-.812,2.064c-.116.428-.173.468-.405.468a1.194,1.194,0,0,1-.464-.117S27.011,4.6,27.185,4.168ZM24.461,7.012a5.292,5.292,0,0,1,3.07-.156c.464.078.869.35.869.74s0,.973-.405.818A1.221,1.221,0,0,0,26.6,8.375c-.812.39-1.739,1.208-2.144,1.013a16.412,16.412,0,0,1-1.449-.935C22.682,8.23,23.07,7.557,24.461,7.012ZM17.449,3.234c.29-.079.464-.156.637.311s0,.7.637.7,1.043.156,1.043-.546-.405-2.181,0-2.181,1.565-.234,1.275.311-.637,1.753-.233,1.792,1.739-.311,1.623.039S22.2,5.3,21.851,5.3s-4.173-.039-4.173-.039S17.159,3.311,17.449,3.234ZM16.405,7.089c.29-.428.522-.9,1.217-.9s3.42.078,4.231.156,1.275.039.985.233-1.16.468-.985,1.208.58.623-.116,1.052-1.159,1.208-1.912.9S17.218,8.375,16.7,8.492C16.7,8.491,16.116,7.518,16.405,7.089ZM8.234,2.454c.058-.585.232-.9,1.1-1.13S11.537.779,12,1.052s1.333,2.259,1.97,3.505a27,27,0,0,1,1.855,4.207c-.116.156-.869.623-1.1.468s-1.16-1.091-1.912-.818-1.855.974-2.26.857c0,0-.232-.974-.637-2.1S8.176,3.038,8.234,2.454ZM28.691,14.762c-.174.273-1.1.663-1.565,1.052s-.521.389-.636.663l-.117.272s-1.1-.039-1.042.117.462.311,1.275.506,1.449.428,1.565.779.347,2.3.464,2.609.58,1.87.232,1.948a25.751,25.751,0,0,1-3.593.428c-1.391.037-4.23,0-5.621-.079s-4.173-.078-5.506-.233a9.281,9.281,0,0,0-2.492-.117c-1.1.078-2.086.389-1.97.078s1.275-2.766,1.623-3.388,0-.584,1.1-.974a16.587,16.587,0,0,0,2.492-.9c.174-.195-.058-.311-.695-.117s-1.565.584-2.029.7a1.326,1.326,0,0,1-1.217-.156c-.347-.274-1.391-1.091-1.564-1.246s-.985-.546-.637-1.091,1.217-2.649,1.507-2.883.174-.622,1.1-.389a19.977,19.977,0,0,0,2.724.546c.405,0,.637-.2.116-.428a13.281,13.281,0,0,0-2.55-.585,6.753,6.753,0,0,1-2.144-.506,8.394,8.394,0,0,1-.927-1.246c-.232-.312-.812-.935-.232-.7s1.623,1.246,2.26,1.091a11.846,11.846,0,0,0,1.739-.935c.7-.311.7-.311,1.275.233s.928,1.013,1.391.663,1.508-1.286,2.029-.857,2.492,1.519,3.014,1.246,2.26-1.792,2.78-1.363,1.217,1.4,1.912,1.091,2.318-1.675,2.724-1.4,1.275.818,1.275,1.168A37.027,37.027,0,0,1,28.691,14.762ZM19.824,7.907c.869.039.58-.272.58-.468s-.869-.195-1.507-.195-.753.078-.753.39C18.144,7.868,18.955,7.868,19.824,7.907Zm5.346.614c.261-.117.088-.35-.391-.5s-.684.056-.609.234C24.345,8.666,24.91,8.637,25.17,8.52Zm.349-.614c.391-.029.347-.2.173-.438s-.435-.234-.782-.146c0,0-.174.322-.129.409A.937.937,0,0,0,25.519,7.907Zm1.521,0a.473.473,0,0,0,.564-.379c0-.146-.545-.335-.739-.205A.311.311,0,0,0,27.04,7.907ZM23.3,11.413c-.7,0-2.174-.059-3.26-.117s-.609.818-.652,1.665a20.9,20.9,0,0,0-.087,3.126c.13.759.565.321,2.086.408s2.434.233,3.042.2.564-.993.522-1.782a19.28,19.28,0,0,1,.088-2.775C25.128,11.413,24,11.413,23.3,11.413Zm.782,1.139c-.025.3-.084.725-.126,1.171-.05-.107-.383-.185-.874-.207-.7-.029-1.521-.029-1.87-.059s-.695.03-.695.206c0,.321.957.175,1.827.2s1.217.176,1.521,0a.255.255,0,0,0,.086-.073c-.024.271-.042.547-.042.8,0,.7.3,1.4-.13,1.4s-1.3-.117-1.956-.117-1.739.147-1.739-.205.088-3.359.088-3.359c0-.117-.044-.351.391-.351s2.434.117,2.868.117S24.128,12.055,24.084,12.552Zm-2.3.175c.044.117.478.263,1.13.322s.652-.292.652-.292a3.4,3.4,0,0,0-1.217-.351C21.823,12.406,21.747,12.638,21.781,12.727Zm.347,2.016a5.931,5.931,0,0,0,1.434-.117c.479-.087-.174-.233-.609-.233s-1.042-.087-1.521-.087-.608.059-.608.2C20.825,14.685,21.65,14.714,22.128,14.743Zm-.217,1.021c1.26,0,1.521-.059,1.608-.262s-1.478-.352-2.087-.352-.942.166-.913.322C20.563,15.708,20.65,15.765,21.911,15.765Z" transform="translate(-6.714)"/>
    </g>
  </g>
</svg>
