<?xml version="1.0" encoding="iso-8859-1"?>
<!-- Generator: Adobe Illustrator 19.0.0, SVG Export Plug-In . SVG Version: 6.00 Build 0)  -->
<svg version="1.1" id="Layer_1" xmlns="http://www.w3.org/2000/svg" xmlns:xlink="http://www.w3.org/1999/xlink" x="0px" y="0px"
	 viewBox="0 0 512 512" style="enable-background:new 0 0 512 512;" xml:space="preserve">
<circle style="fill:#FF8E31;" cx="256" cy="256" r="256"/>
<path style="fill:#ED7425;" d="M510.287,285.266L334.738,109.722H177.265l-9.805,23.296l42.278,85.683l28.119,28.127l1.848,1.846
	l-2.465,2.465l-15.877,108.874L256,402.294l92.434,92.429C435.412,461.025,499.359,381.222,510.287,285.266z"/>
<polygon style="fill:#03628A;" points="305.613,312.86 296.617,338.296 275.448,321.582 251.464,198.889 260.557,196.268 "/>
<polygon style="fill:#0684BA;" points="290.66,360.005 256,402.286 221.356,360.005 245.03,197.586 266.985,197.586 "/>
<polygon style="fill:#03628A;" points="266.985,197.586 245.03,197.586 235.359,175.45 239.465,163.377 272.561,163.377 
	276.641,175.45 "/>
<polygon style="fill:#CEE2F2;" points="177.277,109.714 334.723,109.714 344.556,133.01 167.444,133.01 "/>
<g>
	<polygon style="fill:#FFFFFF;" points="167.444,133.01 209.754,218.708 256,163.377 177.277,109.714 	"/>
	<polygon style="fill:#FFFFFF;" points="334.723,109.714 256,163.377 302.254,218.708 344.556,133.01 	"/>
</g>
<g>
</g>
<g>
</g>
<g>
</g>
<g>
</g>
<g>
</g>
<g>
</g>
<g>
</g>
<g>
</g>
<g>
</g>
<g>
</g>
<g>
</g>
<g>
</g>
<g>
</g>
<g>
</g>
<g>
</g>
</svg>
