<svg xmlns="http://www.w3.org/2000/svg" viewBox="979 1014 10 14">
  <g id="group-87" transform="translate(979 1014)">
    <g id="group">
      <path id="path" d="M5,0A4.885,4.885,0,0,0,0,4.751C0,5.805.653,7.406,2.053,9.79c.956,1.626,1.906,3,1.948,3.059l.686.991a.384.384,0,0,0,.624,0L6,12.849c.039-.057.983-1.421,1.948-3.059C9.347,7.406,10,5.8,10,4.751A4.883,4.883,0,0,0,5,0ZM7.293,9.445c-.95,1.618-1.879,2.96-1.918,3.014L5,13l-.375-.541c-.039-.057-.977-1.41-1.918-3.016C1.409,7.232.749,5.654.749,4.751A4.153,4.153,0,0,1,5,.712,4.153,4.153,0,0,1,9.251,4.751C9.254,5.654,8.594,7.232,7.293,9.445Z"/>
      <path id="path-2" data-name="path" d="M77.073,73.3a2.638,2.638,0,1,0,2.773,2.635A2.71,2.71,0,0,0,77.073,73.3Zm0,4.557A1.925,1.925,0,1,1,79.1,75.935,1.978,1.978,0,0,1,77.073,77.857Z" transform="translate(-72.073 -71.212)"/>
    </g>
  </g>
</svg>
