<svg xmlns="http://www.w3.org/2000/svg" viewBox="1184 1268 10 12">
  <g id="group-107" transform="translate(1184 1268)">
    <path id="path" d="M6.031,1.923V1.295h.107a.162.162,0,0,0,.16-.163V.764A.758.758,0,0,0,5.548,0h-1.1A.758.758,0,0,0,3.7.764v.367a.162.162,0,0,0,.16.163h.107v.631a4.945,4.945,0,0,0-1.987.925l-.366-.375a.328.328,0,0,0-.467,0l-.454.462a.339.339,0,0,0,0,.473l.361.37A5.143,5.143,0,0,0,0,6.907,5.053,5.053,0,0,0,5,12,5.1,5.1,0,0,0,6.031,1.923ZM4.022.764a.434.434,0,0,1,.43-.438h1.1a.434.434,0,0,1,.43.438v.2H4.022v-.2Zm.267.541H5.71v.56a4.909,4.909,0,0,0-1.421,0v-.56ZM.919,3.183a.012.012,0,0,1,0-.008c0-.005,0-.005,0-.008L1.373,2.7a.012.012,0,0,1,.013,0l.345.351a4.87,4.87,0,0,0-.47.473ZM5,11.674A4.729,4.729,0,0,1,.321,6.907,4.729,4.729,0,0,1,5,2.141,4.729,4.729,0,0,1,9.679,6.907,4.729,4.729,0,0,1,5,11.674Z"/>
    <path id="path-2" data-name="path" d="M45.1,107.9a3.973,3.973,0,1,0,3.9,3.972A3.941,3.941,0,0,0,45.1,107.9Zm0,7.617a3.646,3.646,0,1,1,3.579-3.645A3.616,3.616,0,0,1,45.1,115.517Z" transform="translate(-40.1 -104.965)"/>
    <path id="path-3" data-name="path" d="M166.237,171.431a.16.16,0,0,0-.315,0s-.422,2.043-.422,2.119a.58.58,0,1,0,1.159,0C166.659,173.471,166.237,171.431,166.237,171.431Zm-.158.846.142.7a.594.594,0,0,0-.142-.016.61.61,0,0,0-.142.016Zm0,1.534a.264.264,0,1,1,.259-.264A.262.262,0,0,1,166.08,173.811Z" transform="translate(-161.08 -166.64)"/>
    <path id="path-4" data-name="path" d="M181.36,346.8a.162.162,0,0,0-.16.163v.631a.16.16,0,1,0,.321,0v-.631A.162.162,0,0,0,181.36,346.8Z" transform="translate(-176.36 -337.365)"/>
    <path id="path-5" data-name="path" d="M181.36,126.758a.162.162,0,0,0,.16-.163v-.631a.16.16,0,1,0-.321,0v.631A.162.162,0,0,0,181.36,126.758Z" transform="translate(-176.36 -122.378)"/>
    <path id="path-6" data-name="path" d="M95.359,317.922l-.438.446a.168.168,0,0,0,0,.231.157.157,0,0,0,.112.049.153.153,0,0,0,.112-.049l.438-.446a.168.168,0,0,0,0-.231A.157.157,0,0,0,95.359,317.922Z" transform="translate(-92.341 -309.227)"/>
    <path id="path-7" data-name="path" d="M251.263,162.348a.148.148,0,0,0,.112-.049l.438-.446a.168.168,0,0,0,0-.231.161.161,0,0,0-.227,0l-.435.443a.164.164,0,0,0,.112.283Z" transform="translate(-244.393 -157.179)"/>
    <path id="path-8" data-name="path" d="M59.783,247.9H59.16a.163.163,0,0,0,0,.326h.62a.162.162,0,0,0,.16-.163A.16.16,0,0,0,59.783,247.9Z" transform="translate(-57.424 -241.156)"/>
    <path id="path-9" data-name="path" d="M280.98,247.9h-.62a.163.163,0,0,0,0,.326h.62a.163.163,0,0,0,0-.326Z" transform="translate(-272.716 -241.156)"/>
    <path id="path-10" data-name="path" d="M95.262,162.4a.163.163,0,0,0,.112.049h0a.162.162,0,0,0,.16-.163.158.158,0,0,0-.051-.117l-.435-.443a.161.161,0,0,0-.227,0,.168.168,0,0,0,0,.231Z" transform="translate(-92.244 -157.277)"/>
    <path id="path-11" data-name="path" d="M251.448,317.922a.161.161,0,0,0-.227,0,.168.168,0,0,0,0,.231l.438.446a.157.157,0,0,0,.112.049.152.152,0,0,0,.112-.049.168.168,0,0,0,0-.231Z" transform="translate(-244.466 -309.227)"/>
  </g>
</svg>
