<svg xmlns="http://www.w3.org/2000/svg" viewBox="1184 1326 10 8">
  <g id="group-111" transform="translate(1184 1326)">
    <g id="group">
      <path id="path" d="M3.908,3.557H4.1a.949.949,0,0,0,.73-.231.667.667,0,0,0,.222-.491A.6.6,0,0,0,4.8,2.344,1.442,1.442,0,0,0,4.1,2.2c-.317,0-.54.029-.7.029V4.279h.508Zm0-.982a1.23,1.23,0,0,1,.222-.029c.254,0,.413.116.413.318s-.159.347-.444.347H3.94l-.032-.635Z" transform="translate(-2.321 -1.565)"/>
      <path id="path-2" data-name="path" d="M.771,3.379h2.54a.545.545,0,0,0,.571-.52V.549A.55.55,0,0,0,3.311,0H.771A.545.545,0,0,0,.2.52V2.83A.55.55,0,0,0,.771,3.379ZM.644.549A.144.144,0,0,1,.8.4H3.279a.144.144,0,0,1,.159.144V2.8a.144.144,0,0,1-.159.144H.8A.144.144,0,0,1,.644,2.8Z" transform="translate(-0.137)"/>
      <path id="path-3" data-name="path" d="M5.416,21.3a.928.928,0,1,0,0,1.848.928.928,0,1,0,0-1.848Zm0,1.184A.305.305,0,0,1,5.1,22.2a.287.287,0,0,1,.317-.289.29.29,0,1,1,0,.578Z" transform="translate(-3.003 -15.148)"/>
      <path id="path-4" data-name="path" d="M9.81,15.257l-.159-1.242a.5.5,0,0,0-.508-.4l-.349.029-1.175-.9a.617.617,0,0,0-.381-.144H4.952a2.528,2.528,0,0,0-1.429.462l-1.27.924-1.714.4a.471.471,0,0,0-.381.433v.462A.114.114,0,0,0,0,15.4v.606a.144.144,0,0,0,.159.144h.984v-.116a1.22,1.22,0,0,1,1.27-1.155,1.22,1.22,0,0,1,1.27,1.155v.116h2.7v-.116a1.22,1.22,0,0,1,1.27-1.155,1.22,1.22,0,0,1,1.27,1.155v.116h.921A.144.144,0,0,0,10,16.008V15.43C9.968,15.344,9.9,15.257,9.81,15.257Zm-3.4-1.5L3.206,13.9l.6-.462a2.162,2.162,0,0,1,1.175-.375H6.413Zm.508-.029v-.664h.222a.483.483,0,0,1,.19.058L8,13.669Z" transform="translate(0 -8.961)"/>
      <path id="path-5" data-name="path" d="M21.916,21.3a.928.928,0,1,0,1.016.924A.981.981,0,0,0,21.916,21.3Zm0,1.184A.305.305,0,0,1,21.6,22.2a.287.287,0,0,1,.317-.289.29.29,0,1,1,0,.578Z" transform="translate(-14.265 -15.148)"/>
    </g>
  </g>
</svg>
