<svg xmlns="http://www.w3.org/2000/svg" viewBox="1187 1380 4 8">
  <path id="path-12" d="M3.951,6.369,2.811,1.531,3.255.211A.135.135,0,0,0,3.209.065.285.285,0,0,0,3.017,0H.891A.29.29,0,0,0,.7.065.135.135,0,0,0,.654.211L1.1,1.531-.042,6.369a.136.136,0,0,0,.056.141L1.771,7.94a.313.313,0,0,0,.367,0L3.895,6.51A.136.136,0,0,0,3.951,6.369Zm-3.5-.023.138-.583L2.88,3.9l.13.553L.572,6.44ZM2.372,1.353h-.8l1.1-.9ZM1.549,1.7h.492l-.607.5ZM1.281,2.841,2.413,1.92l.13.553L1.09,3.655ZM.937,4.3,2.645,2.911l.13.553L.746,5.116Zm2.175.591.13.553L1.3,7.03.891,6.7ZM2.174.343,1.406.968,1.2.343ZM1.954,7.567l-.339-.274L3.344,5.884l.11.462Z" transform="translate(1187.046 1380)"/>
</svg>
