<svg xmlns="http://www.w3.org/2000/svg" viewBox="1361 1102 3.898 7.796">
  <g id="group-109" transform="translate(1361 1102)">
    <path id="path" d="M3.735,0H.164A.162.162,0,0,0,0,.159V7.635a.157.157,0,0,0,.093.143.163.163,0,0,0,.071.016.155.155,0,0,0,.1-.034L2.05,6.385a.156.156,0,0,0,.027-.222.168.168,0,0,0-.229-.026L.327,7.308V.317H3.571v6.99l-.731-.56a.165.165,0,0,0-.229.026A.153.153,0,0,0,2.639,7l.995.767a.168.168,0,0,0,.172.019A.162.162,0,0,0,3.9,7.638V.159A.162.162,0,0,0,3.735,0Z"/>
    <path id="path-2" data-name="path" d="M21.164,24.117H23.59a.159.159,0,1,0,0-.317H21.164a.159.159,0,1,0,0,.317Z" transform="translate(-20.428 -23.171)"/>
    <path id="path-3" data-name="path" d="M21.164,47.717H23.59a.159.159,0,1,0,0-.317H21.164a.159.159,0,1,0,0,.317Z" transform="translate(-20.428 -46.147)"/>
    <path id="path-4" data-name="path" d="M22.867,71.1h-1.7a.159.159,0,1,0,0,.317h1.7a.159.159,0,1,0,0-.317Z" transform="translate(-20.428 -69.22)"/>
  </g>
</svg>
