<?xml version="1.0" encoding="iso-8859-1"?>
<!-- Generator: Adobe Illustrator 19.0.0, SVG Export Plug-In . SVG Version: 6.00 Build 0)  -->
<svg version="1.1" id="Capa_1" xmlns="http://www.w3.org/2000/svg" xmlns:xlink="http://www.w3.org/1999/xlink" x="0px" y="0px"
	 viewBox="0 0 384 384" style="enable-background:new 0 0 384 384;" xml:space="preserve">
<circle style="fill:#45B39C;" cx="192" cy="192" r="192"/>
<path style="opacity:0.1;enable-background:new    ;" d="M289.72,103.63c-16.36-16.36-42.84-16.36-59.2,0l59.2,59.24
	c0.007-0.007,0.012-0.014,0.019-0.021l85.766,85.765c4.974-16.142,7.828-33.202,8.35-50.85L289.72,103.63z"/>
<path style="opacity:0.1;enable-background:new    ;" d="M199.621,85.175c-1.952-1.964-4.65-3.186-7.621-3.186
	c-5.92,0-10.76,4.84-10.76,10.76c0,4.36,2.64,8.08,6.36,9.76v14c-6.3,0.32-12.397,1.373-18.273,2.968L153.48,103.63
	c-14.72-14.72-37.68-16.12-54.04-4.32c-0.88,0.6-1.72,1.24-2.56,1.96c-0.88,0.76-1.76,1.52-2.6,2.36
	c-16.36,16.36-16.36,42.88,0,59.24l14.913,14.913c-2.388,7.902-3.673,16.283-3.673,24.967c0,22.24,8.48,42.48,22.28,57.8
	l-6.56,34.56c-0.43,2.28,0.492,4.198,1.97,5.439l-0.022,0.032l82.854,82.853c76.737-5.553,140.986-56.146,166.343-125.52
	L199.632,85.162L199.621,85.175z"/>
<g>
	<path style="fill:#3A556A;" d="M202.742,92.742C202.742,86.81,197.932,82,192,82c-5.932,0-10.741,4.81-10.741,10.742
		c0,4.366,2.615,8.106,6.356,9.786v16.402h8.772v-16.402C200.126,100.848,202.742,97.108,202.742,92.742z"/>
	<path style="fill:#3A556A;" d="M227.604,276.108l25.443,24.268c4.076,3.888,10.741,0.265,9.695-5.27l-8.101-42.878"/>
	<path style="fill:#3A556A;" d="M156.396,276.108l-25.443,24.268c-4.076,3.888-10.741,0.265-9.695-5.27l8.101-42.878"/>
</g>
<circle style="fill:#64798A;" cx="192" cy="202.76" r="86.476"/>
<circle style="fill:#FFFFFF;" cx="192" cy="202.76" r="67.872"/>
<path style="fill:#E1E6E9;" d="M192,139.399c36.729,0,66.624,29.181,67.814,65.621c0.024-0.749,0.056-1.495,0.056-2.25
	c0-37.484-30.387-67.871-67.871-67.871c-37.484,0-67.871,30.387-67.871,67.871c0,0.755,0.032,1.501,0.057,2.25
	C125.376,168.58,155.27,139.399,192,139.399z"/>
<path style="fill:#FCD462;" d="M289.734,103.638c-16.356-16.355-42.873-16.355-59.228,0l59.228,59.228
	C306.089,146.51,306.089,119.993,289.734,103.638z"/>
<path style="fill:#F6C358;" d="M289.734,103.638c1.624,1.624,3.04,3.372,4.342,5.177c-16.369-11.805-39.32-10.388-54.051,4.342
	l-9.52-9.519C246.861,87.282,273.378,87.282,289.734,103.638z"/>
<path style="fill:#FCD462;" d="M94.266,103.638c16.356-16.355,42.873-16.355,59.228,0l-59.228,59.228
	C77.911,146.51,77.911,119.993,94.266,103.638z"/>
<path style="fill:#F6C358;" d="M94.266,103.638c1.624-1.624,3.372-3.041,5.177-4.342c-11.805,16.369-10.388,39.32,4.342,54.051
	l-9.519,9.52C77.911,146.51,77.911,119.993,94.266,103.638z"/>
<g>
	<path style="fill:#64798A;" d="M192,151.273c-1.928,0-3.49,1.562-3.49,3.49v51.136h6.98v-51.136
		C195.49,152.836,193.928,151.273,192,151.273z"/>
	<path style="fill:#64798A;" d="M224.728,199.28h-35.758c0.086,2.361-0.022,4.691-0.308,6.98h36.066c1.928,0,3.49-1.563,3.49-3.49
		C228.218,200.842,226.656,199.28,224.728,199.28z"/>
</g>
<circle style="fill:#3A556A;" cx="192" cy="202.76" r="8.656"/>
<g>
	<circle style="fill:#E56353;" cx="192" cy="262.84" r="4.328"/>
	<circle style="fill:#E56353;" cx="192" cy="142.716" r="4.328"/>
	<circle style="fill:#E56353;" cx="131.948" cy="202.76" r="4.328"/>
	<circle style="fill:#E56353;" cx="252.04" cy="202.76" r="4.328"/>
</g>
<g>
</g>
<g>
</g>
<g>
</g>
<g>
</g>
<g>
</g>
<g>
</g>
<g>
</g>
<g>
</g>
<g>
</g>
<g>
</g>
<g>
</g>
<g>
</g>
<g>
</g>
<g>
</g>
<g>
</g>
</svg>
