<svg xmlns="http://www.w3.org/2000/svg" viewBox="-298 2732 24 24">
  <g id="group" transform="translate(-298 2732)">
    <g id="group-2" data-name="group">
      <path id="path" d="M57.462,39.19v5.975a.825.825,0,0,0,.754.881h9.965a.825.825,0,0,0,.753-.881V38.736a5.084,5.084,0,0,0,2.131-2.275,6.455,6.455,0,0,0,.207-5.645,4.63,4.63,0,0,0-4.306-2.462,5.6,5.6,0,0,0-3.634,1.61,5.782,5.782,0,0,0-4.52-2.187,4.945,4.945,0,0,0-4.218,2.845,5.167,5.167,0,0,0-.611,3.7A9.054,9.054,0,0,0,57.462,39.19ZM55.848,31.6a3.543,3.543,0,0,1,3-2.06A4.4,4.4,0,0,1,62.2,31.131a14.772,14.772,0,0,0-1.7,2.5.971.971,0,0,0,.253,1.211.693.693,0,0,0,1.035-.3c.023-.044,2.337-4.423,5.175-4.423a3.209,3.209,0,0,1,3.015,1.605,4.533,4.533,0,0,1-.246,3.906c-1.25,2.75-6.577,2.861-8.526,2.672a.8.8,0,0,0-.813.806.852.852,0,0,0,.688.954c.084.008.653.06,1.484.06a15.609,15.609,0,0,0,4.859-.708v4.866H58.97V38.693a.918.918,0,0,0-.388-.772c-.026-.018-2.669-1.764-3.136-4.023A3.184,3.184,0,0,1,55.848,31.6Z" transform="translate(-50.475 -27.775)"/>
      <path id="path-2" data-name="path" d="M0,290.868v1.457s3.63-.082,4.435-.082,2.02,3.13,2.794,3.13h9.341c1.033,0,2.415-3.13,3.358-3.13H24v-1.459Z" transform="translate(0 -271.374)"/>
    </g>
  </g>
</svg>
