<svg xmlns="http://www.w3.org/2000/svg" viewBox="-212 2732 24 24">
  <g id="group" transform="translate(-212 2732)">
    <path id="path" d="M15.732,0A8.263,8.263,0,0,0,9.149,13.264L7.475,14.939a.4.4,0,0,0-.029.033,2.064,2.064,0,0,0-.421-.044,2.034,2.034,0,0,0-1.448.6L.6,20.5a2.047,2.047,0,1,0,2.9,2.9l4.976-4.976a2.033,2.033,0,0,0,.6-1.448,2.065,2.065,0,0,0-.044-.421.386.386,0,0,0,.033-.029l1.675-1.675A8.266,8.266,0,1,0,15.732,0ZM2.946,22.85a1.27,1.27,0,1,1-1.8-1.8l4.494-4.494,1.8,1.8ZM7.987,17.8,6.2,16.014a1.269,1.269,0,0,1,1.79,1.79Zm.708-2.011a2.042,2.042,0,0,0-.487-.487l1.443-1.443q.233.253.487.487Zm7.038-.034a7.49,7.49,0,1,1,7.49-7.49A7.5,7.5,0,0,1,15.732,15.758Z"/>
    <path id="path-2" data-name="path" d="M182.61,32a6.609,6.609,0,1,0,6.609,6.609A6.617,6.617,0,0,0,182.61,32Zm0,12.441a5.832,5.832,0,1,1,5.832-5.832A5.838,5.838,0,0,1,182.61,44.441Z" transform="translate(-166.878 -30.341)"/>
    <path id="path-3" data-name="path" d="M344.585,78.283a.389.389,0,0,0-.425.651,4.174,4.174,0,0,1,.944,6.154.389.389,0,0,0,.6.5,4.951,4.951,0,0,0-1.119-7.3Z" transform="translate(-326.154 -74.165)"/>
    <path id="path-4" data-name="path" d="M297.289,64.082a4.992,4.992,0,0,0-.9-.082.389.389,0,0,0,0,.778,4.212,4.212,0,0,1,.759.069.389.389,0,1,0,.14-.765Z" transform="translate(-280.657 -60.683)"/>
  </g>
</svg>
