<svg xmlns="http://www.w3.org/2000/svg" viewBox="-255 2732 24 24">
  <g id="group" transform="translate(-255 2732)">
    <path id="path" d="M24,12A12,12,0,1,0,4.223,21.123a.4.4,0,0,0,.122.091A11.873,11.873,0,0,0,12.03,24a12.126,12.126,0,0,0,7.622-2.724.481.481,0,0,0,.275-.215A12.149,12.149,0,0,0,24,12ZM1.1,12a10.9,10.9,0,1,1,18.736,7.563A8.132,8.132,0,0,0,15.8,14.085a4.679,4.679,0,0,0,1.009-2.939,4.776,4.776,0,1,0-9.552,0,4.941,4.941,0,0,0,1.009,2.939,7.942,7.942,0,0,0-4.036,5.479A10.691,10.691,0,0,1,1.1,12Zm7.225-.828A3.674,3.674,0,1,1,12,14.847,3.684,3.684,0,0,1,8.328,11.174ZM5.2,20.511a6.862,6.862,0,0,1,3.858-5.573A4.744,4.744,0,0,0,12,15.947a4.86,4.86,0,0,0,2.971-1.04,7,7,0,0,1,3.889,5.573A10.911,10.911,0,0,1,12.035,22.9,10.8,10.8,0,0,1,5.2,20.511Z"/>
  </g>
</svg>
