<svg xmlns="http://www.w3.org/2000/svg" viewBox="-83 2732 24 24">
  <g id="shapes" transform="translate(-83 2732)">
    <g id="group" transform="translate(0 0)">
      <g id="group-2" data-name="group">
        <path id="path" d="M19.568,18.189H4.432A4.648,4.648,0,0,0,0,23.017v10.04a4.648,4.648,0,0,0,4.432,4.828H14.881L18.658,42a.566.566,0,0,0,.418.189.546.546,0,0,0,.226-.049.647.647,0,0,0,.365-.595v-3.66A4.659,4.659,0,0,0,24,33.058V23.017A4.648,4.648,0,0,0,19.568,18.189Zm3.25,14.869a3.409,3.409,0,0,1-3.25,3.541h-.493a.619.619,0,0,0-.591.644v2.749l-2.941-3.2a.567.567,0,0,0-.418-.189H4.432a3.409,3.409,0,0,1-3.25-3.541V23.017a3.409,3.409,0,0,1,3.25-3.541H19.568a3.409,3.409,0,0,1,3.25,3.541v10.04Z" transform="translate(0 -18.189)"/>
        <path id="path-2" data-name="path" d="M96,161.248a1.454,1.454,0,1,0,1.33,1.449A1.393,1.393,0,0,0,96,161.248Z" transform="translate(-89.537 -152.801)"/>
        <path id="path-3" data-name="path" d="M198.213,161.248a1.454,1.454,0,1,0,1.33,1.449A1.393,1.393,0,0,0,198.213,161.248Z" transform="translate(-186.213 -152.801)"/>
        <path id="path-4" data-name="path" d="M300.428,161.248a1.454,1.454,0,1,0,1.329,1.449A1.393,1.393,0,0,0,300.428,161.248Z" transform="translate(-282.889 -152.801)"/>
      </g>
    </g>
  </g>
</svg>
