<?xml version="1.0" encoding="utf-8"?>
<!-- Generator: Adobe Illustrator 16.0.0, SVG Export Plug-In . SVG Version: 6.00 Build 0)  -->
<!DOCTYPE svg PUBLIC "-//W3C//DTD SVG 1.1//EN" "http://www.w3.org/Graphics/SVG/1.1/DTD/svg11.dtd">
<svg version="1.1" id="Capa_1" xmlns="http://www.w3.org/2000/svg" xmlns:xlink="http://www.w3.org/1999/xlink" x="0px" y="0px"
	 width="841.889px" height="595.281px" viewBox="0 0 841.889 595.281" enable-background="new 0 0 841.889 595.281"
	 xml:space="preserve">
<path fill="#FCD462" d="M389.313,127.117c-57.999,0.953-103.979,49.477-103.979,107.485v111.82c0,2.247-1.069,4.363-2.881,5.696
	l-29.151,21.462c-1.811,1.333-2.88,3.447-2.88,5.695v34.223c0,3.906,3.167,7.073,7.073,7.073h133.609V127.18
	C390.503,127.179,389.919,127.109,389.313,127.117z"/>
<path fill="#F6C358" d="M528.907,373.581l-29.151-21.462c-1.811-1.333-2.881-3.447-2.881-5.696v-113.56
	c0-58.396-47.357-105.668-105.771-105.684v293.393h133.608c3.907,0,7.074-3.167,7.074-7.073v-34.223
	C531.787,377.028,530.719,374.914,528.907,373.581z"/>
<path fill="#64798A" d="M343.513,420.572c0,26.283,21.308,47.592,47.592,47.592c26.283,0,47.591-21.308,47.591-47.592H343.513z"/>
<circle fill="#FFFFFF" cx="510.485" cy="208.081" r="80.983"/>
<circle fill="#E56353" cx="510.485" cy="208.082" r="65.76"/>
</svg>
