<?xml version="1.0" encoding="iso-8859-1"?>
<!-- Generator: Adobe Illustrator 19.0.0, SVG Export Plug-In . SVG Version: 6.00 Build 0)  -->
<svg version="1.1" id="Layer_1" xmlns="http://www.w3.org/2000/svg" xmlns:xlink="http://www.w3.org/1999/xlink" x="0px" y="0px"
	 viewBox="0 0 512 512" style="enable-background:new 0 0 512 512;" xml:space="preserve">
<circle style="fill:#FFDC00;" cx="256" cy="256" r="256"/>
<path style="fill:#FFC000;" d="M512,256c0-28.589-4.691-56.084-13.338-81.758L391.478,67.058L118.372,377.025l134.94,134.94
	c0.896,0.009,1.789,0.034,2.688,0.034C397.384,512,512,397.384,512,256z"/>
<path style="fill:#758F9B;" d="M227.556,510.419C236.896,511.452,246.384,512,256,512c9.616,0,19.104-0.548,28.444-1.581V369.778
	h-56.889V510.419z"/>
<path style="fill:#495E66;" d="M255.426,369.778v142.214c0.191,0,0.383,0.009,0.574,0.009c9.616,0,19.104-0.548,28.444-1.581
	V369.778H255.426z"/>
<path style="fill:#175D76;" d="M373.586,386.77H138.414c-14.083,0-25.498-11.416-25.498-25.498V85.22
	c0-14.083,11.416-25.498,25.498-25.498h235.172c14.083,0,25.498,11.416,25.498,25.498v276.052
	C399.084,375.355,387.668,386.77,373.586,386.77z"/>
<path style="fill:#00263F;" d="M373.586,59.721h-118.16V386.77h118.16c14.083,0,25.498-11.416,25.498-25.498V85.22
	C399.084,71.137,387.668,59.721,373.586,59.721z"/>
<path style="fill:#FFFFFF;" d="M278.302,101.523H174.114v239.999h53.513v-79.458h50.676c44.332,0,80.27-35.938,80.27-80.27l0,0
	C358.572,137.461,322.634,101.523,278.302,101.523z M278.302,208.549h-50.674v-53.513h50.674c14.777,0,26.757,11.979,26.757,26.757
	l0,0C305.059,196.57,293.079,208.549,278.302,208.549z"/>
<path style="fill:#E0E0E0;" d="M278.304,101.523h-22.878v53.513h22.876c14.777,0,26.757,11.979,26.757,26.757
	s-11.979,26.757-26.757,26.757h-22.876v53.513h22.878c44.332,0,80.27-35.938,80.27-80.27l0,0
	C358.572,137.461,322.634,101.523,278.304,101.523z"/>
<g>
</g>
<g>
</g>
<g>
</g>
<g>
</g>
<g>
</g>
<g>
</g>
<g>
</g>
<g>
</g>
<g>
</g>
<g>
</g>
<g>
</g>
<g>
</g>
<g>
</g>
<g>
</g>
<g>
</g>
</svg>
