<?xml version="1.0" encoding="utf-8"?>
<!-- Generator: Adobe Illustrator 16.0.0, SVG Export Plug-In . SVG Version: 6.00 Build 0)  -->
<!DOCTYPE svg PUBLIC "-//W3C//DTD SVG 1.1//EN" "http://www.w3.org/Graphics/SVG/1.1/DTD/svg11.dtd">
<svg version="1.1" id="Layer_1" xmlns="http://www.w3.org/2000/svg" xmlns:xlink="http://www.w3.org/1999/xlink" x="0px" y="0px"
	 width="145px" height="86px" viewBox="0 0 145 86" enable-background="new 0 0 145 86" xml:space="preserve">
<path d="M145,5.292c0,2.922-2.369,5.292-5.292,5.292H5.292C2.369,10.583,0,8.214,0,5.292l0,0C0,2.369,2.369,0,5.292,0h134.416
	C142.631,0,145,2.369,145,5.292L145,5.292z"/>
<path d="M125,80.709c0,2.922-2.369,5.291-5.292,5.291H5.292C2.369,86,0,83.631,0,80.709l0,0c0-2.924,2.369-5.293,5.292-5.293
	h114.416C122.631,75.416,125,77.785,125,80.709L125,80.709z"/>
<path d="M85,43.001c0,2.922-2.369,5.291-5.292,5.291H5.292C2.369,48.292,0,45.923,0,43.001l0,0c0-2.924,2.369-5.293,5.292-5.293
	h74.416C82.631,37.708,85,40.077,85,43.001L85,43.001z"/>
</svg>
