<svg xmlns="http://www.w3.org/2000/svg" viewBox="582 1825 16 18">
  <g id="group-91" transform="translate(582 1825)">
    <path id="path" d="M9.65,2.885V1.942h.171a.252.252,0,0,0,.256-.245V1.147A1.176,1.176,0,0,0,8.876,0H7.124a1.176,1.176,0,0,0-1.2,1.147V1.7a.252.252,0,0,0,.256.245H6.35v.947A8.158,8.158,0,0,0,3.171,4.277l-.585-.563a.549.549,0,0,0-.748,0l-.726.694a.487.487,0,0,0,0,.71l.577.555A7.408,7.408,0,0,0,0,10.361,7.836,7.836,0,0,0,8,18a7.836,7.836,0,0,0,8-7.639A7.747,7.747,0,0,0,9.65,2.885ZM6.436,1.147A.673.673,0,0,1,7.124.49H8.876a.673.673,0,0,1,.688.657v.306H6.436V1.147Zm.427.812H9.137V2.8a8.372,8.372,0,0,0-2.274,0V1.959ZM1.47,4.774a.017.017,0,0,1,0-.012c0-.008,0-.008,0-.012L2.2,4.056a.02.02,0,0,1,.021,0l.551.526a7.563,7.563,0,0,0-.752.71ZM8,17.51A7.333,7.333,0,0,1,.513,10.361,7.333,7.333,0,0,1,8,3.212a7.333,7.333,0,0,1,7.487,7.149A7.333,7.333,0,0,1,8,17.51Z"/>
    <path id="path-2" data-name="path" d="M47.439,107.9a5.964,5.964,0,1,0,6.239,5.958A6.111,6.111,0,0,0,47.439,107.9Zm0,11.426a5.474,5.474,0,1,1,5.726-5.468A5.607,5.607,0,0,1,47.439,119.326Z" transform="translate(-39.439 -103.497)"/>
    <path id="path-3" data-name="path" d="M166.68,171.5a.26.26,0,0,0-.5,0s-.675,3.065-.675,3.179a.928.928,0,0,0,1.855,0C167.355,174.556,166.68,171.5,166.68,171.5Zm-.252,1.269.227,1.049a1.012,1.012,0,0,0-.227-.024,1.039,1.039,0,0,0-.226.024Zm0,2.3a.4.4,0,1,1,.415-.4A.406.406,0,0,1,166.427,175.066Z" transform="translate(-158.427 -164.31)"/>
    <path id="path-4" data-name="path" d="M181.456,346.8a.252.252,0,0,0-.256.245v.947a.257.257,0,0,0,.513,0v-.947A.252.252,0,0,0,181.456,346.8Z" transform="translate(-173.456 -332.648)"/>
    <path id="path-5" data-name="path" d="M181.456,127.236a.252.252,0,0,0,.256-.245v-.947a.257.257,0,0,0-.513,0v.947A.252.252,0,0,0,181.456,127.236Z" transform="translate(-173.456 -120.666)"/>
    <path id="path-6" data-name="path" d="M95.65,317.945l-.7.669a.241.241,0,0,0,0,.347.259.259,0,0,0,.179.073.252.252,0,0,0,.179-.073l.7-.669a.241.241,0,0,0,0-.347A.264.264,0,0,0,95.65,317.945Z" transform="translate(-90.821 -304.903)"/>
    <path id="path-7" data-name="path" d="M251.361,162.735a.245.245,0,0,0,.18-.073l.7-.669a.241.241,0,0,0,0-.347.27.27,0,0,0-.363,0l-.7.665a.238.238,0,0,0-.081.18A.255.255,0,0,0,251.361,162.735Z" transform="translate(-240.369 -154.982)"/>
    <path id="path-8" data-name="path" d="M60.252,247.9h-1a.245.245,0,1,0,0,.49h.991a.252.252,0,0,0,.256-.245A.248.248,0,0,0,60.252,247.9Z" transform="translate(-56.479 -237.784)"/>
    <path id="path-9" data-name="path" d="M281.448,247.9h-.991a.245.245,0,1,0,0,.49h.991a.245.245,0,1,0,0-.49Z" transform="translate(-268.226 -237.784)"/>
    <path id="path-10" data-name="path" d="M95.554,162.757a.27.27,0,0,0,.179.073h0a.252.252,0,0,0,.256-.245.23.23,0,0,0-.081-.175l-.7-.665a.269.269,0,0,0-.363,0,.241.241,0,0,0,0,.347Z" transform="translate(-90.725 -155.077)"/>
    <path id="path-11" data-name="path" d="M251.612,317.945a.269.269,0,0,0-.363,0,.241.241,0,0,0,0,.347l.7.669a.259.259,0,0,0,.179.073.252.252,0,0,0,.179-.073.241.241,0,0,0,0-.347Z" transform="translate(-240.441 -304.903)"/>
  </g>
</svg>
