<svg xmlns="http://www.w3.org/2000/svg" viewBox="294 2450 14 14">
  <defs>
    <style>
      .cls-1 {
        fill: #fff;
      }

      .cls-2 {
        fill: #171717;
      }
    </style>
  </defs>
  <g id="group-39" transform="translate(-37 2432)">
    <circle id="ellipse-2" class="cls-1" cx="7" cy="7" r="7" transform="translate(331 18)"/>
    <path id="path-1" class="cls-2" d="M4.76,2.024s0,0,0-.006,0,0,0,0,0,0,0-.006,0,0,0-.006a0,0,0,0,1,0,0,.008.008,0,0,1,0-.006V1.98h0A2.214,2.214,0,0,0,2.386,0,2.214,2.214,0,0,0,0,1.979H0v.012A.008.008,0,0,0,0,2,0,0,0,0,0,0,2s0,0,0,.006,0,0,0,0,0,0,0,0a.01.01,0,0,0,0,.006s0,0,0,0,0,0,0,.006a0,0,0,0,0,0,0L1.46,4.025a.427.427,0,0,0-.07.047.315.315,0,0,0-.122.242.31.31,0,0,0,.122.242,3,3,0,0,0,.454.232H1.118a.256.256,0,0,0-.273.228v.35a.123.123,0,0,0,.132.11H.986V6.535a.254.254,0,0,0,.273.226H3.514a.254.254,0,0,0,.273-.226V5.476H3.8a.123.123,0,0,0,.132-.11v-.35a.254.254,0,0,0-.273-.226H2.931a2.866,2.866,0,0,0,.454-.232.315.315,0,0,0,.122-.242.31.31,0,0,0-.122-.242.427.427,0,0,0-.07-.047l1.441-1.99a0,0,0,0,1,0,0s0,0,0-.006,0,0,0,0ZM2.918,4l.72-1.992h0A.016.016,0,0,0,3.64,2a27.177,27.177,0,0,1,0-.012V1.979h0c0-.032.148-.124.431-.124A.659.659,0,0,1,4.5,1.96L3.042,3.972A.6.6,0,0,0,2.918,4ZM1.729,3.975.273,1.961A.659.659,0,0,1,.7,1.855c.284,0,.431.092.431.124h0v.009a163.066,163.066,0,0,0,0,.012s0,.006,0,.009h0L1.853,4a.385.385,0,0,0-.123-.029Zm.789-2c0-.032.148-.124.431-.124a.593.593,0,0,1,.428.115L2.518,4.347ZM2.254,4.347,1.395,1.97a.6.6,0,0,1,.428-.115c.284,0,.431.092.431.124ZM2.386.219A2.046,2.046,0,0,1,4.48,1.7a1.277,1.277,0,0,0-.4-.06,1.036,1.036,0,0,0-.564.137,1.036,1.036,0,0,0-.564-.137,1.036,1.036,0,0,0-.564.137,1.036,1.036,0,0,0-.564-.137,1.036,1.036,0,0,0-.564.137A1.036,1.036,0,0,0,.7,1.636a1.269,1.269,0,0,0-.4.06A2.046,2.046,0,0,1,2.386.219Zm-.854,4.1a.113.113,0,0,1,.044-.088.171.171,0,0,1,.211,0h0a3.234,3.234,0,0,1,.294.419A4.228,4.228,0,0,1,1.576,4.4a.113.113,0,0,1-.044-.088Zm-.423.7s0-.007.009-.007H2.254v.248H1.11ZM1.25,6.535V5.476h1V6.542h-1C1.254,6.542,1.25,6.539,1.25,6.535Zm2.272,0s0,.007-.009.007h-1V5.476h1Zm.141-1.519v.241H2.518V5.009H3.654C3.66,5.009,3.663,5.012,3.663,5.016ZM3.2,4.4a4.228,4.228,0,0,1-.505.244,3.234,3.234,0,0,1,.294-.419h0a.171.171,0,0,1,.211,0,.109.109,0,0,1,0,.175Z" transform="translate(335.773 21.5)"/>
  </g>
</svg>
