<svg xmlns="http://www.w3.org/2000/svg" viewBox="582 1878 16 12">
  <g id="group-92" transform="translate(582 1877.988)">
    <g id="group" transform="translate(0 0.012)">
      <path id="path" d="M141.138,4.711a.26.26,0,0,0,.219.107.316.316,0,0,0,.141-.036.228.228,0,0,0,.078-.334c-.008-.014-.823-1.18-.133-1.984a1.462,1.462,0,0,0,.2-1.607A3.018,3.018,0,0,0,141.161.1a.29.29,0,0,0-.376-.028.229.229,0,0,0-.031.341c.016.014.917,1.024.274,1.77C140.111,3.239,141.1,4.654,141.138,4.711Z" transform="translate(-129.614 -0.012)"/>
      <path id="path-2" data-name="path" d="M163.838,4.711a.26.26,0,0,0,.219.107.317.317,0,0,0,.141-.036.228.228,0,0,0,.078-.334c-.008-.014-.823-1.18-.133-1.984a1.462,1.462,0,0,0,.2-1.607A3.019,3.019,0,0,0,163.861.1a.29.29,0,0,0-.376-.028.222.222,0,0,0-.031.334c.008.007.917,1.024.274,1.77C162.811,3.239,163.8,4.654,163.838,4.711Z" transform="translate(-150.535 -0.012)"/>
      <path id="path-3" data-name="path" d="M22.119,6.311a.26.26,0,0,0,.22.107.317.317,0,0,0,.141-.036.228.228,0,0,0,.078-.334c-.008-.014-.823-1.18-.133-1.984a1.462,1.462,0,0,0,.2-1.607,3.019,3.019,0,0,0-.478-.761.29.29,0,0,0-.376-.028A.222.222,0,0,0,21.735,2c.008.007.917,1.024.274,1.77C21.092,4.839,22.072,6.247,22.119,6.311Z" transform="translate(-19.924 -1.498)"/>
      <path id="path-4" data-name="path" d="M44.767,6.311a.26.26,0,0,0,.219.107.317.317,0,0,0,.141-.036.228.228,0,0,0,.078-.334c-.008-.014-.823-1.18-.133-1.984a1.462,1.462,0,0,0,.2-1.607A2.872,2.872,0,0,0,44.8,1.7a.29.29,0,0,0-.376-.028A.222.222,0,0,0,44.391,2c.008.007.917,1.024.274,1.77C43.74,4.839,44.728,6.247,44.767,6.311Z" transform="translate(-40.801 -1.498)"/>
      <path id="path-5" data-name="path" d="M15.122,40.485h-.564A6.25,6.25,0,0,0,8.584,34.8v-.242a.984.984,0,0,0,.533-.86,1.056,1.056,0,0,0-1.105-1H7.988a1.056,1.056,0,0,0-1.105,1,.984.984,0,0,0,.533.86V34.8a6.237,6.237,0,0,0-5.974,5.681H.878a.839.839,0,0,0-.878.8v.3a.839.839,0,0,0,.878.8H15.122a.839.839,0,0,0,.878-.8v-.3A.839.839,0,0,0,15.122,40.485ZM7.408,33.7a.554.554,0,0,1,.58-.526h.024a.554.554,0,0,1,.58.526.533.533,0,0,1-.368.491.239.239,0,0,0-.165.22v.377h-.11v-.37a.233.233,0,0,0-.165-.22A.542.542,0,0,1,7.408,33.7Zm8.059,7.884a.336.336,0,0,1-.353.32H.878a.336.336,0,0,1-.353-.32v-.3a.336.336,0,0,1,.353-.32h9.94a.243.243,0,1,0,0-.483H1.968a5.808,5.808,0,0,1,6-5.225h.071a5.808,5.808,0,0,1,6,5.225h-1.5a.243.243,0,1,0,0,.483h2.587a.336.336,0,0,1,.353.32l-.008.3Z" transform="translate(0 -30.376)"/>
    </g>
  </g>
</svg>
