<svg xmlns="http://www.w3.org/2000/svg" viewBox="684 132 18 18">
  <path id="path-4" d="M18,4.133A3.659,3.659,0,0,0,16.37,1.159,6.447,6.447,0,0,0,12.571,0,6.564,6.564,0,0,0,9.008,1,6.579,6.579,0,0,0,5.442,0a6.466,6.466,0,0,0-3.8,1.159A3.671,3.671,0,0,0,0,4.133V6.9A2.176,2.176,0,0,0,.337,8.066v2a3.278,3.278,0,0,0,.686,1.978,4.378,4.378,0,0,0,.906.885l6.83,5a.392.392,0,0,0,.474,0l6.83-5a3.558,3.558,0,0,0,1.592-2.863V8.071A2.2,2.2,0,0,0,18,6.907S18,4.235,18,4.133ZM16.678,7.881,14.712,9.319l.054-1.04L16.375,7.1a4.6,4.6,0,0,0,.8-.735l0,.531A1.242,1.242,0,0,1,16.678,7.881ZM10.663,4.788,9.727,4.1l4.2-3.075a5.39,5.39,0,0,1,1.272.438Zm-1.9-.319,4.876,3.566-.935.681L2.8,1.473a5.571,5.571,0,0,1,1.268-.442Zm3.421,6.7L9.412,13.2v-1l2.818-2.062Zm-.216-1.916L9.008,11.416,6.04,9.248,9,7.084Zm-6.206.858L8.58,12.181V13.2L5.812,11.173Zm2.5-3.571L5.3,8.708l-.935-.686L7.325,5.858Zm-4.17,2.35.806.588.237,4.708-.8-.588Zm1.775,3.394L8.58,14.274v2.447l-2.586-1.9ZM9.412,14.27l2.715-1.987L12,14.823,9.416,16.717l0-2.447ZM13.095,9.5l.806-.588-.237,4.695-.8.588Zm4.1-5.367a2.823,2.823,0,0,1-1.3,2.243L14.367,7.5,11.4,5.327,16,1.965A2.773,2.773,0,0,1,17.2,4.133ZM8.771,1.889a.4.4,0,0,0,.47,0,5.638,5.638,0,0,1,3.33-1h.083L8.992,3.566,5.333.885h.108A5.629,5.629,0,0,1,8.771,1.889Zm-6.764.08L6.593,5.323,3.637,7.487,2.116,6.372a2.823,2.823,0,0,1-1.3-2.243A2.774,2.774,0,0,1,2.008,1.969ZM1.642,7.1l1.58,1.155.054,1.058L1.318,7.881a1.221,1.221,0,0,1-.491-.987V6.35A4.776,4.776,0,0,0,1.642,7.1Zm.033,4.385a2.384,2.384,0,0,1-.5-1.425V8.85l2.166,1.584.129,2.54L2.407,12.2A3.352,3.352,0,0,1,1.675,11.487Zm13.914.708-1.06.774.129-2.54,2.166-1.584v1.212A2.691,2.691,0,0,1,15.589,12.195Z" transform="translate(684 132)"/>
</svg>
