<svg xmlns="http://www.w3.org/2000/svg" viewBox="737 263 24 24">
  <defs>
    <style>
      .cls-1 {
        fill: #fff;
      }
    </style>
  </defs>
  <path id="path-2" class="cls-1" d="M3.282,6.956c.17-1.822,1.042-3.391,2.167-3.91a.513.513,0,0,1,.686.271.54.54,0,0,1-.263.705A3.8,3.8,0,0,0,4.313,7.058a.528.528,0,0,1-.516.485H3.748A.534.534,0,0,1,3.282,6.956Zm1,11a.532.532,0,0,1-.521.536H1.614a.518.518,0,0,1-.406-.2.539.539,0,0,1-.1-.446,6.066,6.066,0,0,1,1.5-3.019A7.165,7.165,0,0,1,0,10.437a.539.539,0,0,1,.1-.446.518.518,0,0,1,.406-.2h.34A10.806,10.806,0,0,1,.824,7.441c.313-3.256,1.838-6.049,3.8-6.957A2.916,2.916,0,0,1,7.2.484c1.964.908,3.494,3.7,3.8,6.957a10.472,10.472,0,0,1-.027,2.353h.34a.518.518,0,0,1,.406.2.539.539,0,0,1,.1.446,8.505,8.505,0,0,1-.5,1.631.516.516,0,0,1-.686.276.542.542,0,0,1-.269-.705,6.813,6.813,0,0,0,.274-.779H1.181a5.639,5.639,0,0,0,2.534,3.425.539.539,0,0,1,.269.434.553.553,0,0,1-.208.468,4.455,4.455,0,0,0-1.487,2.234h1.47A.524.524,0,0,1,4.28,17.953ZM1.9,9.789H9.93a9.22,9.22,0,0,0,.038-2.246C9.7,4.7,8.383,2.2,6.77,1.455c-.005,0-.011-.006-.016-.006a1.907,1.907,0,0,0-1.679,0c-.005,0-.011.006-.016.006C3.446,2.2,2.135,4.7,1.861,7.543A9.2,9.2,0,0,0,1.9,9.789ZM23.841,8.6a.543.543,0,0,1,.11.542,5.888,5.888,0,0,1-4.366,3.78,6.132,6.132,0,0,1-1.311.141A5.615,5.615,0,0,1,14.3,11.481l-.9,1a.51.51,0,0,1-.735.034.546.546,0,0,1-.033-.756l.938-1.049a8.735,8.735,0,0,1,2.1-7.764A8.14,8.14,0,0,1,23.3.2a.527.527,0,0,1,.395.372,8.522,8.522,0,0,1-1.185,6.974A5.182,5.182,0,0,1,23.841,8.6Zm-2.935-.7c.137-.152.269-.31.389-.474a.078.078,0,0,0,.016-.023,7.563,7.563,0,0,0,1.459-6.224,7.179,7.179,0,0,0-6.347,2.488,7.764,7.764,0,0,0-1.986,6.054l1.355-1.518-.313-1.461a.536.536,0,0,1,.395-.638.521.521,0,0,1,.62.406l.154.728,1.519-1.7-.313-1.461a.536.536,0,0,1,.395-.638.521.521,0,0,1,.62.406l.154.728L20.067,3.43A.51.51,0,0,1,20.8,3.4a.546.546,0,0,1,.033.756L19.809,5.3l.719.1a.537.537,0,0,1,.45.6.524.524,0,0,1-.587.463l-1.443-.2-1.519,1.7.719.1a.537.537,0,0,1,.45.6.524.524,0,0,1-.587.463l-1.443-.2-1.355,1.518A7.273,7.273,0,0,0,20.906,7.9Zm1.947,1.2a4.483,4.483,0,0,0-.987-.694c-.06.073-.126.147-.192.22a8.528,8.528,0,0,1-5.54,2.878,4.952,4.952,0,0,0,3.231.372A4.9,4.9,0,0,0,22.854,9.1Zm-2.6,8.684a2.911,2.911,0,0,1-.06,2.2c-1.015,2.387-6.544,3.871-8.481,4.029-.247.023-.494.034-.735.034a5.7,5.7,0,0,1-5.206-2.725,5.554,5.554,0,0,1,.159-5.716c1.212-1.868,3.428-2.72,6.078-2.342h0C13.934,13.541,19.376,15.346,20.254,17.784Zm-.971.395c0-.006-.005-.011-.005-.017-.269-.75-1.41-1.642-3.132-2.449a17.239,17.239,0,0,0-4.279-1.382h0a7.7,7.7,0,0,0-1.1-.079,4.36,4.36,0,0,0-4.092,6.534c.527.92,1.871,2.426,4.953,2.172a17.473,17.473,0,0,0,4.344-1.128c1.766-.705,2.957-1.529,3.264-2.263,0-.006.005-.011.005-.017A1.853,1.853,0,0,0,19.283,18.179ZM14.883,18a1.745,1.745,0,0,1-.038,1.461,4.038,4.038,0,0,1-3.385,1.862c-.126.011-.252.011-.373.011a3.163,3.163,0,0,1-2.9-1.467,2.57,2.57,0,0,1,.071-2.658,3.274,3.274,0,0,1,3.352-1.264A4.037,4.037,0,0,1,14.883,18Zm-.954.434c0-.006-.005-.011-.005-.017a3.072,3.072,0,0,0-2.447-1.411,4.171,4.171,0,0,0-.521-.034,2.052,2.052,0,0,0-1.827.824,1.486,1.486,0,0,0-.044,1.529,2.3,2.3,0,0,0,2.3.925A3.051,3.051,0,0,0,13.9,18.986c0-.006.005-.011.005-.017A.633.633,0,0,0,13.929,18.433Z" transform="translate(737.01 262.953)"/>
</svg>
