<svg xmlns="http://www.w3.org/2000/svg" viewBox="583 1930 14 14">
  <path id="path-10" d="M13.531,12.579h-.015V.469A.471.471,0,0,0,13.048,0H12.08a.471.471,0,0,0-.469.469V.484H2.389V.469A.471.471,0,0,0,1.92,0H.952A.471.471,0,0,0,.484.469v12.11H.469A.471.471,0,0,0,0,13.048v.484A.471.471,0,0,0,.469,14H13.531A.471.471,0,0,0,14,13.531v-.484A.471.471,0,0,0,13.531,12.579ZM12.065.469A.014.014,0,0,1,12.08.454h.968a.014.014,0,0,1,.015.015v12.11h-1ZM2.389,12.579V11.1H2.9v.015a.711.711,0,0,0,1.421,0V11.1H6.048v.015a.71.71,0,0,0,1.194.52.71.71,0,0,0,.968,0,.71.71,0,0,0,.968,0,.71.71,0,0,0,1.194-.52V11.1h1.24v1.482ZM9.4,10.629a.257.257,0,1,1,.514,0v.484a.257.257,0,0,1-.514,0Zm.257-.711a.708.708,0,0,0-.484.19.71.71,0,0,0-.968,0,.71.71,0,0,0-.968,0,.71.71,0,0,0-1.194.52v.015H4.324v-.015a.711.711,0,1,0-1.421,0v.015H2.389V8.678H3.87v.015a.711.711,0,1,0,1.421,0V8.678H7.015v.015a.71.71,0,0,0,1.194.52A.71.71,0,0,0,9.4,8.693V8.678h2.207v1.965h-1.24v-.015A.71.71,0,0,0,9.661,9.918Zm-1.225.711a.257.257,0,1,1,.514,0v.484a.257.257,0,0,1-.514,0Zm-.968,0a.257.257,0,1,1,.514,0v.484a.257.257,0,0,1-.514,0Zm-.968,0a.257.257,0,1,1,.514,0v.484a.257.257,0,0,1-.514,0Zm-3.145,0a.257.257,0,1,1,.514,0v.484a.257.257,0,0,1-.514,0Zm0-7.015h0V3.371a.257.257,0,1,1,.514,0v.484a.257.257,0,1,1-.514,0Zm.257.952a.71.71,0,0,0,.711-.711V3.84H7.983v.015a.71.71,0,0,0,1.194.52.71.71,0,0,0,1.194-.52V3.84h1.24V5.806H5.292V5.79A.71.71,0,0,0,4.1,5.27.71.71,0,0,0,2.9,5.79v.015H2.389V3.84H2.9v.015A.71.71,0,0,0,3.613,4.566ZM8.95,3.855a.257.257,0,1,1-.514,0V3.371a.257.257,0,1,1,.514,0Zm.968-.245h0v.242a.257.257,0,1,1-.514,0V3.368a.257.257,0,1,1,.514,0ZM8.436,8.21a.257.257,0,0,1,.514,0v.484a.257.257,0,0,1-.514,0ZM8.693,7.5a.708.708,0,0,0-.484.19.71.71,0,0,0-1.194.52v.015H5.292V8.21a.711.711,0,0,0-1.421,0v.015H2.389V6.259H2.9v.015a.71.71,0,0,0,1.194.52.71.71,0,0,0,1.194-.52V6.259h6.32V8.225H9.4V8.21A.71.71,0,0,0,8.693,7.5ZM7.469,8.21a.257.257,0,0,1,.514,0v.484a.257.257,0,0,1-.514,0Zm-3.145,0a.257.257,0,0,1,.514,0v.484a.257.257,0,0,1-.514,0ZM3.87,6.274a.257.257,0,1,1-.514,0V5.79a.257.257,0,1,1,.514,0Zm.968-.245h0v.242a.257.257,0,1,1-.514,0V5.787a.257.257,0,1,1,.514,0Zm6.773-2.643h-1.24V3.371a.71.71,0,0,0-1.194-.52.71.71,0,0,0-1.194.52v.015H4.324V3.371a.711.711,0,1,0-1.421,0v.015H2.389V1.9h9.222Zm0-2.449v.514H2.389V.937ZM.937.469A.014.014,0,0,1,.952.454H1.92a.014.014,0,0,1,.015.015v12.11h-1ZM13.546,13.531a.014.014,0,0,1-.015.015H.469a.014.014,0,0,1-.015-.015v-.484a.014.014,0,0,1,.015-.015H13.531a.014.014,0,0,1,.015.015Z" transform="translate(583 1930)"/>
</svg>
