<svg xmlns="http://www.w3.org/2000/svg" viewBox="328 2450 14 14">
  <defs>
    <style>
      .cls-1 {
        fill: #fff;
      }
    </style>
  </defs>
  <path id="path-4" class="cls-1" d="M14,3.214A2.846,2.846,0,0,0,12.733.9,5.014,5.014,0,0,0,9.777,0,5.106,5.106,0,0,0,7.006.774,5.117,5.117,0,0,0,4.232,0,5.029,5.029,0,0,0,1.277.9,2.855,2.855,0,0,0,0,3.214V5.365a1.692,1.692,0,0,0,.262.909V7.826A2.549,2.549,0,0,0,.8,9.364a3.405,3.405,0,0,0,.7.688l5.312,3.885a.305.305,0,0,0,.369,0l5.312-3.885a2.767,2.767,0,0,0,1.238-2.227V6.277A1.714,1.714,0,0,0,14,5.372S14,3.294,14,3.214ZM12.972,6.129,11.442,7.248l.042-.809,1.251-.915a3.574,3.574,0,0,0,.621-.571l0,.413A.966.966,0,0,1,12.972,6.129ZM8.293,3.724,7.566,3.19,10.835.8a4.192,4.192,0,0,1,.989.341ZM6.812,3.476,10.605,6.25l-.727.53-7.7-5.634A4.333,4.333,0,0,1,3.162.8ZM9.473,8.69,7.32,10.266V9.488l2.192-1.6ZM9.305,7.2l-2.3,1.679L4.7,7.193,7,5.51Zm-4.827.668,2.2,1.607v.792L4.52,8.69ZM6.424,5.09l-2.3,1.683L3.4,6.239,5.7,4.557ZM3.182,6.917l.627.458.184,3.662-.624-.458Zm1.381,2.64L6.673,11.1v1.9L4.662,11.529ZM7.32,11.1,9.431,9.554l-.1,1.975L7.323,13l0-1.9Zm2.865-3.71.627-.458-.184,3.651L10,11.04Zm3.191-4.175a2.2,2.2,0,0,1-1.009,1.745l-1.193.874L8.866,4.144l3.576-2.616A2.157,2.157,0,0,1,13.376,3.214ZM6.822,1.47a.311.311,0,0,0,.365,0A4.385,4.385,0,0,1,9.777.688h.065L6.994,2.774,4.148.688h.084A4.378,4.378,0,0,1,6.822,1.47Zm-5.261.062L5.128,4.14l-2.3,1.683L1.646,4.956A2.2,2.2,0,0,1,.637,3.211,2.157,2.157,0,0,1,1.562,1.531ZM1.277,5.524l1.229.9.042.823L1.025,6.129a.95.95,0,0,1-.382-.767V4.939A3.715,3.715,0,0,0,1.277,5.524ZM1.3,8.934A1.854,1.854,0,0,1,.912,7.826V6.883L2.6,8.115l.1,1.975-.824-.6A2.607,2.607,0,0,1,1.3,8.934Zm10.822.551-.824.6.1-1.975L13.085,6.88v.943A2.093,2.093,0,0,1,12.125,9.485Z" transform="translate(328 2450)"/>
</svg>
