<svg xmlns="http://www.w3.org/2000/svg" viewBox="-424 2977 18 18">
  <defs>
    <style>
      .cls-1 {
        fill: #010002;
      }
    </style>
  </defs>
  <g id="group" transform="translate(-424 2977)">
    <g id="group-2" data-name="group">
      <g id="group-3" data-name="group">
        <g id="group-4" data-name="group">
          <path id="path" class="cls-1" d="M9.983,18H8.1c-.281,0-.386,0-1.352-2.455L6,15.231a8.591,8.591,0,0,1-2.362.941H3.477l-.132-.116L2,14.721c-.2-.206-.272-.278.773-2.7l-.307-.735C0,10.384,0,10.286,0,9.981V8.091c0-.3,0-.385,2.459-1.362l.307-.735C1.66,3.611,1.73,3.539,1.949,3.324l1.44-1.443.176-.009a12.624,12.624,0,0,1,2.406.9l.746-.314C7.621,0,7.727,0,8.008,0H9.9c.281,0,.386,0,1.352,2.455l.746.3a8.591,8.591,0,0,1,2.362-.941h.158l.132.116L15.989,3.27c.2.206.272.278-.773,2.706l.307.744C18,7.616,18,7.714,18,8.01V9.9c0,.287,0,.394-2.459,1.362l-.307.744c1.106,2.374,1.027,2.446.825,2.661L14.6,16.118l-.184.009a12.659,12.659,0,0,1-2.4-.9l-.755.314C10.379,18,10.273,18,9.983,18Zm-1.695-.779H9.781c.167-.358.544-1.3.834-2.114l.061-.161,1.361-.556.149.063c.808.349,1.765.744,2.142.86l1.045-1.048c-.132-.376-.536-1.3-.9-2.079l-.07-.161.562-1.371.149-.063c.817-.323,1.765-.717,2.116-.9V8.225c-.36-.17-1.3-.538-2.116-.833l-.158-.054-.562-1.371.07-.152c.351-.8.738-1.747.86-2.132L14.268,2.634c-.342.116-1.291.538-2.09.914l-.149.072-1.361-.556-.061-.152C10.282,2.1,9.887,1.147,9.7.8H8.21c-.176.358-.544,1.3-.834,2.114l-.061.161-1.352.564-.149-.063C5,3.225,4.039,2.831,3.67,2.715L2.625,3.736c.132.376.536,1.3.9,2.079l.07.161L3.038,7.347l-.149.063c-.817.323-1.765.717-2.116.9V9.775c.36.17,1.3.538,2.116.833l.158.063.562,1.362-.07.152c-.351.8-.738,1.747-.86,2.123l1.054,1.048c.342-.125,1.291-.538,2.09-.914l.149-.072,1.352.564.061.152C7.709,15.921,8.113,16.862,8.289,17.221ZM9,12.149A3.149,3.149,0,1,1,12.143,9,3.149,3.149,0,0,1,9,12.149ZM9,6.63A2.365,2.365,0,1,0,11.38,9,2.369,2.369,0,0,0,9,6.63Z"/>
        </g>
      </g>
    </g>
  </g>
</svg>
