<svg xmlns="http://www.w3.org/2000/svg" viewBox="712 132 18 18">
  <path id="path-5" d="M3.813,10.938,1.037,13.644a.637.637,0,0,1-.44.176.647.647,0,0,1-.44-.176.6.6,0,0,1,0-.858L2.933,10.08a.635.635,0,0,1,.88,0A.6.6,0,0,1,3.813,10.938Zm1.439,5.191-.835.814a.6.6,0,0,0,0,.858.637.637,0,0,0,.44.176A.647.647,0,0,0,5.3,17.8l.835-.814a.6.6,0,0,0,0-.858A.635.635,0,0,0,5.252,16.129ZM17.484,2.508c-.056.143-.118.291-.186.451L13.247,13.072c-.575,1.435-.993,2.194-1.693,2.332a1,1,0,0,1-.22.022c-.547,0-.97-.423-1.5-.946a.336.336,0,0,0-.045-.044l-6.539.418a.623.623,0,0,1-.6-.352.593.593,0,0,1,.124-.676l3.193-3.113L3.232,8.046c-.79-.77-1.247-1.375-1.112-2.013.169-.709.9-.979,2-1.391.147-.055.3-.11.463-.176L14.956.523C16.44-.044,17.23-.225,17.71.248,18.212.737,17.924,1.441,17.484,2.508Zm-.829-1.27a11.2,11.2,0,0,0-1.247.412L5.037,5.6c-.164.06-.322.121-.474.176a6.687,6.687,0,0,0-1.19.517,3.661,3.661,0,0,0,.756.891L6.865,9.849l5.6-5.461a.635.635,0,0,1,.88,0,.6.6,0,0,1,0,.858L7.311,11.131l-.006.005-.006.005-2.471,2.4L8.637,13.3,7.9,12.582a.6.6,0,0,1,0-.858.637.637,0,0,1,.44-.176.647.647,0,0,1,.44.176l1.664,1.622c.1.1.2.2.288.286a5.514,5.514,0,0,0,.592.544,6.079,6.079,0,0,0,.773-1.545L16.152,2.519c.062-.159.13-.313.186-.462C16.446,1.787,16.57,1.474,16.655,1.238Z" transform="translate(712.025 132.023)"/>
</svg>
