<svg xmlns="http://www.w3.org/2000/svg" viewBox="1184 1104 10 10">
  <g id="group-101" transform="translate(1183.979 1104.027)">
    <path id="path" d="M10.014,8.2a.77.77,0,0,0-.38-.568L7.165,6.214a.775.775,0,0,0-.933.123l-.486.486a.355.355,0,0,1-.475.026A14.314,14.314,0,0,1,4.15,5.84,14.313,14.313,0,0,1,3.142,4.719a.355.355,0,0,1,.026-.475l.486-.486a.774.774,0,0,0,.123-.933L2.358.36a.77.77,0,0,0-.568-.38A.762.762,0,0,0,1.142.2L.409.932C-.1,1.444-.109,2.377.388,3.564A11.618,11.618,0,0,0,2.893,7.1,11.631,11.631,0,0,0,6.429,9.606a4.132,4.132,0,0,0,1.549.367,1.478,1.478,0,0,0,1.084-.389l.732-.732a.77.77,0,0,0,.22-.65ZM7.005,6.494,9.472,7.915a.45.45,0,0,1,.136.656L6.329,6.7l.134-.134a.448.448,0,0,1,.542-.073ZM1.748.3a.451.451,0,0,1,.33.22L3.5,2.988a.451.451,0,0,1-.071.542L3.3,3.653,1.422.386A.451.451,0,0,1,1.688.3c.019,0,.039,0,.06,0ZM8.833,9.353c-.406.406-1.235.389-2.279-.048A11.3,11.3,0,0,1,3.122,6.87,11.288,11.288,0,0,1,.686,3.439C.25,2.4.232,1.567.638,1.161L1.183.617,3.066,3.89l-.127.127a.679.679,0,0,0-.05.907A14.174,14.174,0,0,0,3.921,6.071,14.549,14.549,0,0,0,5.068,7.1a.679.679,0,0,0,.907-.05l.114-.114L9.373,8.813l-.54.54Z" transform="translate(0 0)"/>
  </g>
</svg>
