<svg xmlns="http://www.w3.org/2000/svg" viewBox="1184 1157 10 10">
  <g id="group-95" transform="translate(1184 1156.99)">
    <path id="path" d="M7.643,4.214V4.209c0-.01,0-.02,0-.03h0a.133.133,0,0,0-.009-.028s0-.005,0-.008a.079.079,0,0,0-.009-.02s0-.005,0-.008,0,0,0-.005A.077.077,0,0,0,7.6,4.093l0,0a.159.159,0,0,0-.018-.023l0-.005a.135.135,0,0,0-.018-.018l0-.005a.151.151,0,0,0-.025-.018L4.2,1.907,6.114.558,9.331,2.6l-1.355.953a.268.268,0,0,0-.07.349.211.211,0,0,0,.312.078L9.892,2.8A.267.267,0,0,0,10,2.582a.262.262,0,0,0-.115-.215L6.221.043a.211.211,0,0,0-.233.005L3.637,1.7h0l-1.174.826h0L.106,4.184A.267.267,0,0,0,0,4.4a.262.262,0,0,0,.115.215L3.778,6.943a.2.2,0,0,0,.111.033.207.207,0,0,0,.12-.038L5.682,5.76a.268.268,0,0,0,.07-.349.211.211,0,0,0-.312-.078L3.879,6.43.667,4.389,2.586,3.039,6.017,5.217V8.1a.263.263,0,0,0,.118.222.215.215,0,0,0,.109.03.207.207,0,0,0,.12-.038l1.176-.829a.26.26,0,0,0,.106-.215V4.237C7.646,4.229,7.643,4.222,7.643,4.214ZM6.469,7.645V5.071a.257.257,0,0,0-.115-.22L3.02,2.734l.742-.523L6.978,4.255l-.283.2a.268.268,0,0,0-.07.349.222.222,0,0,0,.192.119.212.212,0,0,0,.12-.038L7.193,4.7V7.135Z" transform="translate(0 0)"/>
    <path id="path-2" data-name="path" d="M349.8,132.064l-1.674,1.177a.268.268,0,0,0-.07.349.222.222,0,0,0,.192.119.212.212,0,0,0,.12-.038l1.674-1.177a.268.268,0,0,0,.07-.349A.211.211,0,0,0,349.8,132.064Z" transform="translate(-340.147 -128.678)"/>
    <path id="path-3" data-name="path" d="M5.459,204.981l-1.561,1.1L.354,203.829a.212.212,0,0,0-.308.1.269.269,0,0,0,.086.344l3.662,2.324a.2.2,0,0,0,.111.033.207.207,0,0,0,.12-.038L5.7,205.41a.268.268,0,0,0,.07-.349A.211.211,0,0,0,5.459,204.981Z" transform="translate(-0.017 -198.637)"/>
    <path id="path-4" data-name="path" d="M349.8,172.064l-1.674,1.177a.268.268,0,0,0-.07.349.222.222,0,0,0,.192.119.212.212,0,0,0,.12-.038l1.674-1.177a.268.268,0,0,0,.07-.349A.211.211,0,0,0,349.8,172.064Z" transform="translate(-340.147 -167.667)"/>
    <path id="path-5" data-name="path" d="M5.459,244.981l-1.561,1.1L.354,243.829a.212.212,0,0,0-.308.1.269.269,0,0,0,.086.344l3.662,2.324a.2.2,0,0,0,.111.033.207.207,0,0,0,.12-.038L5.7,245.41a.268.268,0,0,0,.07-.349A.211.211,0,0,0,5.459,244.981Z" transform="translate(-0.017 -237.626)"/>
    <path id="path-6" data-name="path" d="M349.8,212.064l-1.674,1.177a.268.268,0,0,0-.07.349.222.222,0,0,0,.192.119.211.211,0,0,0,.12-.038l1.674-1.177a.268.268,0,0,0,.07-.349A.211.211,0,0,0,349.8,212.064Z" transform="translate(-340.147 -206.657)"/>
    <path id="path-7" data-name="path" d="M5.459,284.981l-1.561,1.1L.354,283.829a.212.212,0,0,0-.308.1.269.269,0,0,0,.086.344l3.662,2.324a.2.2,0,0,0,.111.033.207.207,0,0,0,.12-.038L5.7,285.41a.268.268,0,0,0,.07-.349A.211.211,0,0,0,5.459,284.981Z" transform="translate(-0.017 -276.615)"/>
  </g>
</svg>
