<svg xmlns="http://www.w3.org/2000/svg" viewBox="1183 1213 10 10">
  <path id="path-11" d="M9.74,9.455H9.369V9.012H9.74A.253.253,0,0,0,10,8.768a2.692,2.692,0,0,0-2.528-2.61V5.736a.26.26,0,0,0-.52,0v.423a2.693,2.693,0,0,0-2.528,2.61.253.253,0,0,0,.26.244h.372v.442H4.684a.245.245,0,1,0,0,.489H9.74a.245.245,0,1,0,0-.489Zm-.891,0H5.575V9.012H8.849ZM4.96,8.524A2.228,2.228,0,0,1,7.212,6.635,2.226,2.226,0,0,1,9.465,8.524H4.96ZM3.1,2.322c-.764,0-1.361.411-1.361.936s.6.936,1.361.936,1.361-.411,1.361-.936S3.869,2.322,3.1,2.322ZM3.1,3.7c-.5,0-.842-.235-.842-.447s.346-.447.842-.447.842.235.842.447S3.6,3.7,3.1,3.7Zm.611,5.752H.52V1.623H5.687V5.692a.26.26,0,0,0,.52,0V1.379a.253.253,0,0,0-.26-.244H5.825V.189A.234.234,0,0,0,5.737.006a.274.274,0,0,0-.2-.061L.229.541A.251.251,0,0,0,0,.783V9.7a.253.253,0,0,0,.26.244H3.715a.245.245,0,1,0,0-.489ZM.52,1,5.305.465v.67H.52ZM2.666,8.756a.245.245,0,1,1,0-.489h.876a.245.245,0,1,1,0,.489Z" transform="translate(1183 1213.057)"/>
</svg>
