<svg xmlns="http://www.w3.org/2000/svg" viewBox="24 460 24 24">
  <defs>
    <style>
      .cls-1 {
        fill: #fff;
      }
    </style>
  </defs>
  <g id="group-39" transform="translate(-307 442)">
    <circle id="ellipse-2" cx="12" cy="12" r="12" transform="translate(331 18)"/>
    <path id="path-1" class="cls-1" d="M8.161,3.47s0-.008.006-.01,0-.005,0-.008,0-.005,0-.01,0-.008,0-.01a.008.008,0,0,1,0-.008.013.013,0,0,1,0-.01V3.392C8.182,1.522,6.346,0,4.091,0S0,1.522,0,3.392v.023a.013.013,0,0,0,0,.01.008.008,0,0,0,0,.008s0,.008,0,.01,0,.005,0,.008,0,.005,0,.008a.018.018,0,0,0,.006.01s0,.005,0,.008,0,.008.006.01a0,0,0,0,0,0,0L2.5,6.9a.731.731,0,0,0-.121.08.54.54,0,0,0-.208.416.531.531,0,0,0,.208.416,5.14,5.14,0,0,0,.779.4H1.917a.439.439,0,0,0-.468.391v.6a.211.211,0,0,0,.226.188h.015V11.2a.436.436,0,0,0,.468.388H6.023a.436.436,0,0,0,.468-.388V9.388h.015A.211.211,0,0,0,6.733,9.2V8.6a.436.436,0,0,0-.468-.388H5.024a4.912,4.912,0,0,0,.779-.4A.54.54,0,0,0,6.011,7.4.531.531,0,0,0,5.8,6.982a.731.731,0,0,0-.121-.08L8.152,3.49a0,0,0,0,1,0,0s0-.008.006-.01,0-.005,0-.008ZM5,6.862,6.238,3.447v0h0v0a.027.027,0,0,0,0-.015,79.867,79.867,0,0,1,.006-.02V3.39c0-.055.254-.213.74-.213a1.129,1.129,0,0,1,.725.183l-2.5,3.45A1.036,1.036,0,0,0,5,6.862ZM2.965,6.814.468,3.362a1.129,1.129,0,0,1,.725-.183c.486,0,.74.158.74.213V3.41a479.221,479.221,0,0,0,.006.02c0,.005,0,.01,0,.015v0h0v0L3.176,6.864a.659.659,0,0,0-.211-.05ZM4.317,3.392c0-.055.254-.213.74-.213a1.016,1.016,0,0,1,.734.2L4.317,7.453V3.392ZM3.864,7.453,2.391,3.377a1.03,1.03,0,0,1,.734-.2c.486,0,.74.158.74.213ZM4.091.376a3.508,3.508,0,0,1,3.59,2.531,2.189,2.189,0,0,0-.691-.1,1.777,1.777,0,0,0-.966.235A1.777,1.777,0,0,0,5.057,2.8a1.777,1.777,0,0,0-.966.235A1.777,1.777,0,0,0,3.125,2.8a1.777,1.777,0,0,0-.966.235A1.777,1.777,0,0,0,1.193,2.8a2.175,2.175,0,0,0-.691.1A3.508,3.508,0,0,1,4.091.376ZM2.627,7.4a.194.194,0,0,1,.075-.15.293.293,0,0,1,.362,0h0a5.545,5.545,0,0,1,.5.718A7.247,7.247,0,0,1,2.7,7.548a.194.194,0,0,1-.075-.15ZM1.9,8.6c0-.008.006-.013.015-.013H3.864v.426H1.9Zm.242,2.6V9.388H3.864v1.828H2.159C2.15,11.215,2.144,11.21,2.144,11.2Zm3.895,0c0,.008-.006.013-.015.013H4.317V9.388H6.038ZM6.28,8.6v.413H4.317V8.587H6.265C6.274,8.587,6.28,8.592,6.28,8.6Zm-.8-1.051a7.247,7.247,0,0,1-.866.418,5.545,5.545,0,0,1,.5-.718h0a.293.293,0,0,1,.362,0,.187.187,0,0,1,0,.3Z" transform="translate(339.182 24)"/>
  </g>
</svg>
